# xmcd
#
# Track frame offsets: 
#        150
#        9762
#        29907
#        36242
#        45952
#        55355
#        62490
#        76462
#        90925
#        104035
#        121952
#        133515
#        145802
#        162270
#        173142
#        191222
#        207655
#        219095
#        230447
#        239970
#        256002
#        268025
#        280255
#        290000
#        301482
#
# Disc length: 4185 seconds
#
# Revision: 1
# Processed by: cddbd v1.5.2PL0 Copyright (c) Steve Scherf et al.
# Submitted via: ExactAudioCopyFreeDBPlugin 1.0
#
DISCID=71105719
DTITLE=Richard J. Szeremany - The Carols Of Christmas
DYEAR=1900
DGENRE=Christmas
TTITLE0=Come, Thou Long Expected Jesus
TTITLE1=Silent Night, Holy Night
TTITLE2=Joseph Dearest, Joseph Mine
TTITLE3=O Come, O Come, Emmanuel
TTITLE4=Lo, How A Rose E'er Blooming
TTITLE5=The Snow Lay On The Ground
TTITLE6=Hark! The Herald Angels Sing
TTITLE7=Jesu, Joy Of Man's Desiring
TTITLE8=Joy To The World
TTITLE9=Away In A Manger
TTITLE10=God Rest You Merry, Gentlemen
TTITLE11=Once In Royal David's City
TTITLE12=O Holy Night
TTITLE13=Angels We Have Heard On High
TTITLE14=In The Bleak Mid-Winter
TTITLE15=We Three Kings Of Orient Ore
TTITLE16=Angels, From The Realms Of Glory
TTITLE17=O Little Town Of Bethlehem
TTITLE18=I Heard The Bells On Christmas Day
TTITLE19=Let All Mortal Flesh Keep Silence
TTITLE20=O Come, All Ye Faithful
TTITLE21=It Came Upon The Midnight Clear
TTITLE22=Calm On The Listening Ear Of Night
TTITLE23=What Child Is This
TTITLE24=Rejoice, Rejoice, Believers
EXTD=
EXTT0=
EXTT1=
EXTT2=
EXTT3=
EXTT4=
EXTT5=
EXTT6=
EXTT7=
EXTT8=
EXTT9=
EXTT10=
EXTT11=
EXTT12=
EXTT13=
EXTT14=
EXTT15=
EXTT16=
EXTT17=
EXTT18=
EXTT19=
EXTT20=
EXTT21=
EXTT22=
EXTT23=
EXTT24=
PLAYORDER=
